<mxfile host="app.diagrams.net" modified="2023-08-08T13:15:19.557Z" agent="Mozilla/5.0 (Windows NT 10.0; Win64; x64) AppleWebKit/537.36 (KHTML, like Gecko) Chrome/114.0.0.0 Safari/537.36" etag="ewnRgomTlO3C5bGtJUzp" version="21.6.6" type="device">
  <diagram id="XBC5JsbsoY9mSvIPsbGa" name="第 1 页">
    <mxGraphModel dx="1956" dy="1194" grid="1" gridSize="10" guides="1" tooltips="1" connect="1" arrows="1" fold="1" page="1" pageScale="1" pageWidth="1654" pageHeight="2336" math="0" shadow="0">
      <root>
        <mxCell id="0" />
        <mxCell id="1" parent="0" />
        <mxCell id="Q5E4qi6qeAWiJgMQaj0U-62" value="" style="rounded=1;whiteSpace=wrap;html=1;fontSize=20;fillColor=#d5e8d4;strokeColor=#82b366;" parent="1" vertex="1">
          <mxGeometry x="30" y="50" width="1610" height="1080" as="geometry" />
        </mxCell>
        <mxCell id="Q5E4qi6qeAWiJgMQaj0U-11" value="" style="edgeStyle=orthogonalEdgeStyle;rounded=0;orthogonalLoop=1;jettySize=auto;html=1;fontSize=20;" parent="1" source="Q5E4qi6qeAWiJgMQaj0U-1" target="Q5E4qi6qeAWiJgMQaj0U-2" edge="1">
          <mxGeometry relative="1" as="geometry" />
        </mxCell>
        <mxCell id="Q5E4qi6qeAWiJgMQaj0U-1" value="&lt;font style=&quot;font-size: 20px;&quot;&gt;Image&lt;/font&gt;" style="rounded=1;whiteSpace=wrap;html=1;fillColor=#f5f5f5;fontColor=#333333;strokeColor=#666666;" parent="1" vertex="1">
          <mxGeometry x="600" y="140" width="380" height="60" as="geometry" />
        </mxCell>
        <mxCell id="Q5E4qi6qeAWiJgMQaj0U-12" value="" style="edgeStyle=orthogonalEdgeStyle;rounded=0;orthogonalLoop=1;jettySize=auto;html=1;fontSize=20;" parent="1" source="Q5E4qi6qeAWiJgMQaj0U-2" target="Q5E4qi6qeAWiJgMQaj0U-4" edge="1">
          <mxGeometry relative="1" as="geometry" />
        </mxCell>
        <mxCell id="Q5E4qi6qeAWiJgMQaj0U-2" value="&lt;font style=&quot;font-size: 20px;&quot;&gt;stem&lt;/font&gt;" style="rounded=1;whiteSpace=wrap;html=1;fillColor=#d0cee2;strokeColor=#56517e;" parent="1" vertex="1">
          <mxGeometry x="600" y="230" width="380" height="60" as="geometry" />
        </mxCell>
        <mxCell id="Q5E4qi6qeAWiJgMQaj0U-13" value="" style="edgeStyle=orthogonalEdgeStyle;rounded=0;orthogonalLoop=1;jettySize=auto;html=1;fontSize=20;" parent="1" source="Q5E4qi6qeAWiJgMQaj0U-4" target="Q5E4qi6qeAWiJgMQaj0U-8" edge="1">
          <mxGeometry relative="1" as="geometry" />
        </mxCell>
        <mxCell id="Q5E4qi6qeAWiJgMQaj0U-26" style="edgeStyle=orthogonalEdgeStyle;rounded=0;orthogonalLoop=1;jettySize=auto;html=1;exitX=0.5;exitY=1;exitDx=0;exitDy=0;entryX=0;entryY=0.5;entryDx=0;entryDy=0;fontSize=20;" parent="1" source="Q5E4qi6qeAWiJgMQaj0U-4" target="Q5E4qi6qeAWiJgMQaj0U-20" edge="1">
          <mxGeometry relative="1" as="geometry" />
        </mxCell>
        <mxCell id="Q5E4qi6qeAWiJgMQaj0U-4" value="stage1" style="rounded=1;whiteSpace=wrap;html=1;fontSize=20;fillColor=#f8cecc;strokeColor=#b85450;" parent="1" vertex="1">
          <mxGeometry x="600" y="320" width="380" height="60" as="geometry" />
        </mxCell>
        <mxCell id="Q5E4qi6qeAWiJgMQaj0U-15" value="" style="edgeStyle=orthogonalEdgeStyle;rounded=0;orthogonalLoop=1;jettySize=auto;html=1;fontSize=20;" parent="1" source="Q5E4qi6qeAWiJgMQaj0U-5" target="Q5E4qi6qeAWiJgMQaj0U-9" edge="1">
          <mxGeometry relative="1" as="geometry" />
        </mxCell>
        <mxCell id="Q5E4qi6qeAWiJgMQaj0U-25" style="edgeStyle=orthogonalEdgeStyle;rounded=0;orthogonalLoop=1;jettySize=auto;html=1;exitX=0.5;exitY=1;exitDx=0;exitDy=0;entryX=0;entryY=0.5;entryDx=0;entryDy=0;fontSize=20;" parent="1" source="Q5E4qi6qeAWiJgMQaj0U-5" target="Q5E4qi6qeAWiJgMQaj0U-21" edge="1">
          <mxGeometry relative="1" as="geometry" />
        </mxCell>
        <mxCell id="Q5E4qi6qeAWiJgMQaj0U-5" value="stage2" style="rounded=1;whiteSpace=wrap;html=1;fontSize=20;fillColor=#f8cecc;strokeColor=#b85450;" parent="1" vertex="1">
          <mxGeometry x="600" y="510" width="380" height="60" as="geometry" />
        </mxCell>
        <mxCell id="Q5E4qi6qeAWiJgMQaj0U-17" style="edgeStyle=orthogonalEdgeStyle;rounded=0;orthogonalLoop=1;jettySize=auto;html=1;exitX=0.5;exitY=1;exitDx=0;exitDy=0;entryX=0.5;entryY=0;entryDx=0;entryDy=0;fontSize=20;" parent="1" source="Q5E4qi6qeAWiJgMQaj0U-6" target="Q5E4qi6qeAWiJgMQaj0U-10" edge="1">
          <mxGeometry relative="1" as="geometry" />
        </mxCell>
        <mxCell id="Q5E4qi6qeAWiJgMQaj0U-24" style="edgeStyle=orthogonalEdgeStyle;rounded=0;orthogonalLoop=1;jettySize=auto;html=1;exitX=0.5;exitY=1;exitDx=0;exitDy=0;fontSize=20;" parent="1" source="Q5E4qi6qeAWiJgMQaj0U-6" target="Q5E4qi6qeAWiJgMQaj0U-22" edge="1">
          <mxGeometry relative="1" as="geometry" />
        </mxCell>
        <mxCell id="Q5E4qi6qeAWiJgMQaj0U-6" value="stage3" style="rounded=1;whiteSpace=wrap;html=1;fontSize=20;fillColor=#f8cecc;strokeColor=#b85450;" parent="1" vertex="1">
          <mxGeometry x="600" y="680" width="380" height="60" as="geometry" />
        </mxCell>
        <mxCell id="Q5E4qi6qeAWiJgMQaj0U-19" style="edgeStyle=orthogonalEdgeStyle;rounded=0;orthogonalLoop=1;jettySize=auto;html=1;exitX=0.5;exitY=1;exitDx=0;exitDy=0;fontSize=20;entryX=0;entryY=0.5;entryDx=0;entryDy=0;" parent="1" source="Q5E4qi6qeAWiJgMQaj0U-7" target="Q5E4qi6qeAWiJgMQaj0U-23" edge="1">
          <mxGeometry relative="1" as="geometry">
            <mxPoint x="790.105263157895" y="970" as="targetPoint" />
          </mxGeometry>
        </mxCell>
        <mxCell id="Q5E4qi6qeAWiJgMQaj0U-59" style="edgeStyle=orthogonalEdgeStyle;rounded=0;orthogonalLoop=1;jettySize=auto;html=1;exitX=0.5;exitY=1;exitDx=0;exitDy=0;entryX=0.5;entryY=0;entryDx=0;entryDy=0;fontSize=20;" parent="1" source="Q5E4qi6qeAWiJgMQaj0U-7" target="Q5E4qi6qeAWiJgMQaj0U-58" edge="1">
          <mxGeometry relative="1" as="geometry" />
        </mxCell>
        <mxCell id="Q5E4qi6qeAWiJgMQaj0U-7" value="stage4" style="rounded=1;whiteSpace=wrap;html=1;fontSize=20;fillColor=#f8cecc;strokeColor=#b85450;" parent="1" vertex="1">
          <mxGeometry x="600" y="860" width="380" height="60" as="geometry" />
        </mxCell>
        <mxCell id="Q5E4qi6qeAWiJgMQaj0U-14" value="" style="edgeStyle=orthogonalEdgeStyle;rounded=0;orthogonalLoop=1;jettySize=auto;html=1;fontSize=20;" parent="1" source="Q5E4qi6qeAWiJgMQaj0U-8" target="Q5E4qi6qeAWiJgMQaj0U-5" edge="1">
          <mxGeometry relative="1" as="geometry" />
        </mxCell>
        <mxCell id="Q5E4qi6qeAWiJgMQaj0U-8" value="&lt;font style=&quot;font-size: 20px;&quot;&gt;downSample&lt;/font&gt;" style="rounded=1;whiteSpace=wrap;html=1;fillColor=#fff2cc;strokeColor=#d6b656;" parent="1" vertex="1">
          <mxGeometry x="600" y="430" width="380" height="60" as="geometry" />
        </mxCell>
        <mxCell id="Q5E4qi6qeAWiJgMQaj0U-16" style="edgeStyle=orthogonalEdgeStyle;rounded=0;orthogonalLoop=1;jettySize=auto;html=1;exitX=0.5;exitY=1;exitDx=0;exitDy=0;entryX=0.5;entryY=0;entryDx=0;entryDy=0;fontSize=20;" parent="1" source="Q5E4qi6qeAWiJgMQaj0U-9" target="Q5E4qi6qeAWiJgMQaj0U-6" edge="1">
          <mxGeometry relative="1" as="geometry" />
        </mxCell>
        <mxCell id="Q5E4qi6qeAWiJgMQaj0U-9" value="&lt;font style=&quot;font-size: 20px;&quot;&gt;downSample&lt;/font&gt;" style="rounded=1;whiteSpace=wrap;html=1;fillColor=#fff2cc;strokeColor=#d6b656;" parent="1" vertex="1">
          <mxGeometry x="600" y="600" width="380" height="60" as="geometry" />
        </mxCell>
        <mxCell id="Q5E4qi6qeAWiJgMQaj0U-18" style="edgeStyle=orthogonalEdgeStyle;rounded=0;orthogonalLoop=1;jettySize=auto;html=1;exitX=0.5;exitY=1;exitDx=0;exitDy=0;fontSize=20;" parent="1" source="Q5E4qi6qeAWiJgMQaj0U-10" target="Q5E4qi6qeAWiJgMQaj0U-7" edge="1">
          <mxGeometry relative="1" as="geometry" />
        </mxCell>
        <mxCell id="Q5E4qi6qeAWiJgMQaj0U-10" value="&lt;font style=&quot;font-size: 20px;&quot;&gt;downSample&lt;/font&gt;" style="rounded=1;whiteSpace=wrap;html=1;fillColor=#fff2cc;strokeColor=#d6b656;" parent="1" vertex="1">
          <mxGeometry x="600" y="780" width="380" height="60" as="geometry" />
        </mxCell>
        <mxCell id="Q5E4qi6qeAWiJgMQaj0U-28" style="edgeStyle=orthogonalEdgeStyle;rounded=1;orthogonalLoop=1;jettySize=auto;html=1;exitX=1;exitY=0.5;exitDx=0;exitDy=0;entryX=0;entryY=0.5;entryDx=0;entryDy=0;fontSize=20;" parent="1" source="Q5E4qi6qeAWiJgMQaj0U-20" target="Q5E4qi6qeAWiJgMQaj0U-27" edge="1">
          <mxGeometry relative="1" as="geometry" />
        </mxCell>
        <mxCell id="Q5E4qi6qeAWiJgMQaj0U-20" value="feature1" style="rounded=1;whiteSpace=wrap;html=1;fontSize=20;fillColor=#dae8fc;strokeColor=#6c8ebf;" parent="1" vertex="1">
          <mxGeometry x="1050" y="370" width="230" height="60" as="geometry" />
        </mxCell>
        <mxCell id="Q5E4qi6qeAWiJgMQaj0U-61" style="edgeStyle=orthogonalEdgeStyle;rounded=0;orthogonalLoop=1;jettySize=auto;html=1;exitX=1;exitY=0.5;exitDx=0;exitDy=0;fontSize=20;endArrow=none;endFill=0;" parent="1" source="Q5E4qi6qeAWiJgMQaj0U-21" edge="1">
          <mxGeometry relative="1" as="geometry">
            <mxPoint x="1340" y="590" as="targetPoint" />
          </mxGeometry>
        </mxCell>
        <mxCell id="Q5E4qi6qeAWiJgMQaj0U-21" value="feature2" style="rounded=1;whiteSpace=wrap;html=1;fontSize=20;fillColor=#dae8fc;strokeColor=#6c8ebf;" parent="1" vertex="1">
          <mxGeometry x="1050" y="560" width="240" height="60" as="geometry" />
        </mxCell>
        <mxCell id="Q5E4qi6qeAWiJgMQaj0U-31" style="edgeStyle=orthogonalEdgeStyle;rounded=0;orthogonalLoop=1;jettySize=auto;html=1;exitX=1;exitY=0.5;exitDx=0;exitDy=0;entryX=0;entryY=0.5;entryDx=0;entryDy=0;fontSize=20;" parent="1" source="Q5E4qi6qeAWiJgMQaj0U-22" target="Q5E4qi6qeAWiJgMQaj0U-27" edge="1">
          <mxGeometry relative="1" as="geometry" />
        </mxCell>
        <mxCell id="Q5E4qi6qeAWiJgMQaj0U-22" value="feature3" style="rounded=1;whiteSpace=wrap;html=1;fontSize=20;fillColor=#dae8fc;strokeColor=#6c8ebf;" parent="1" vertex="1">
          <mxGeometry x="1050" y="740" width="230" height="60" as="geometry" />
        </mxCell>
        <mxCell id="Q5E4qi6qeAWiJgMQaj0U-32" style="edgeStyle=orthogonalEdgeStyle;rounded=1;orthogonalLoop=1;jettySize=auto;html=1;exitX=1;exitY=0.5;exitDx=0;exitDy=0;entryX=0;entryY=0.5;entryDx=0;entryDy=0;fontSize=20;" parent="1" source="Q5E4qi6qeAWiJgMQaj0U-23" target="Q5E4qi6qeAWiJgMQaj0U-27" edge="1">
          <mxGeometry relative="1" as="geometry" />
        </mxCell>
        <mxCell id="Q5E4qi6qeAWiJgMQaj0U-23" value="feature4" style="rounded=1;whiteSpace=wrap;html=1;fontSize=20;fillColor=#dae8fc;strokeColor=#6c8ebf;" parent="1" vertex="1">
          <mxGeometry x="1050" y="930" width="230" height="60" as="geometry" />
        </mxCell>
        <mxCell id="Q5E4qi6qeAWiJgMQaj0U-27" value="Mask2Former Head" style="rounded=1;whiteSpace=wrap;html=1;fontSize=20;fillColor=#ffe6cc;strokeColor=#d79b00;" parent="1" vertex="1">
          <mxGeometry x="1390" y="600" width="220" height="150" as="geometry" />
        </mxCell>
        <mxCell id="Q5E4qi6qeAWiJgMQaj0U-43" value="&lt;div style=&quot;font-family: Consolas, &amp;quot;Courier New&amp;quot;, monospace; line-height: 20px;&quot;&gt;&lt;font style=&quot;font-size: 20px;&quot;&gt;Yolov5Head&lt;/font&gt;&lt;/div&gt;" style="rounded=1;whiteSpace=wrap;html=1;fontSize=20;fillColor=#ffe6cc;strokeColor=#d79b00;" parent="1" vertex="1">
          <mxGeometry x="65" y="555" width="200" height="70" as="geometry" />
        </mxCell>
        <mxCell id="Q5E4qi6qeAWiJgMQaj0U-44" value="&lt;div style=&quot;font-family: Consolas, &amp;quot;Courier New&amp;quot;, monospace; line-height: 20px;&quot;&gt;Yolov5Head&lt;br&gt;&lt;/div&gt;" style="rounded=1;whiteSpace=wrap;html=1;fontSize=20;fillColor=#ffe6cc;strokeColor=#d79b00;" parent="1" vertex="1">
          <mxGeometry x="65" y="690" width="195" height="70" as="geometry" />
        </mxCell>
        <mxCell id="Q5E4qi6qeAWiJgMQaj0U-45" value="&lt;div style=&quot;font-family: Consolas, &amp;quot;Courier New&amp;quot;, monospace; line-height: 20px;&quot;&gt;Yolov5Head&lt;br&gt;&lt;/div&gt;" style="rounded=1;whiteSpace=wrap;html=1;fontSize=20;fillColor=#ffe6cc;strokeColor=#d79b00;" parent="1" vertex="1">
          <mxGeometry x="60" y="830" width="200" height="70" as="geometry" />
        </mxCell>
        <mxCell id="Q5E4qi6qeAWiJgMQaj0U-58" value="cls_head" style="rounded=1;whiteSpace=wrap;html=1;fontSize=20;fillColor=#cce5ff;strokeColor=#36393d;" parent="1" vertex="1">
          <mxGeometry x="665" y="1020" width="250" height="60" as="geometry" />
        </mxCell>
        <mxCell id="QIkn6gaIrlvY1YC5hSpW-1" value="&lt;font style=&quot;font-size: 20px;&quot;&gt;YOLOCSPPAN&lt;/font&gt;" style="rounded=1;whiteSpace=wrap;html=1;fillColor=#e1d5e7;strokeColor=#9673a6;" vertex="1" parent="1">
          <mxGeometry x="320" y="630" width="200" height="150" as="geometry" />
        </mxCell>
        <mxCell id="QIkn6gaIrlvY1YC5hSpW-2" value="" style="endArrow=classic;html=1;rounded=1;entryX=1;entryY=0.5;entryDx=0;entryDy=0;" edge="1" parent="1" target="QIkn6gaIrlvY1YC5hSpW-1">
          <mxGeometry width="50" height="50" relative="1" as="geometry">
            <mxPoint x="790" y="590" as="sourcePoint" />
            <mxPoint x="690" y="650" as="targetPoint" />
            <Array as="points">
              <mxPoint x="570" y="590" />
              <mxPoint x="540" y="620" />
            </Array>
          </mxGeometry>
        </mxCell>
        <mxCell id="QIkn6gaIrlvY1YC5hSpW-3" value="" style="endArrow=classic;html=1;rounded=1;entryX=1;entryY=0.5;entryDx=0;entryDy=0;" edge="1" parent="1" target="QIkn6gaIrlvY1YC5hSpW-1">
          <mxGeometry width="50" height="50" relative="1" as="geometry">
            <mxPoint x="790" y="770" as="sourcePoint" />
            <mxPoint x="690" y="650" as="targetPoint" />
            <Array as="points">
              <mxPoint x="560" y="770" />
            </Array>
          </mxGeometry>
        </mxCell>
        <mxCell id="QIkn6gaIrlvY1YC5hSpW-4" value="" style="endArrow=classic;html=1;rounded=1;anchorPointDirection=1;" edge="1" parent="1">
          <mxGeometry width="50" height="50" relative="1" as="geometry">
            <mxPoint x="790" y="960" as="sourcePoint" />
            <mxPoint x="520" y="710" as="targetPoint" />
            <Array as="points">
              <mxPoint x="560" y="960" />
            </Array>
          </mxGeometry>
        </mxCell>
        <mxCell id="QIkn6gaIrlvY1YC5hSpW-5" value="" style="endArrow=classic;html=1;rounded=0;entryX=1;entryY=0.5;entryDx=0;entryDy=0;exitX=0;exitY=0.5;exitDx=0;exitDy=0;" edge="1" parent="1" source="QIkn6gaIrlvY1YC5hSpW-1" target="Q5E4qi6qeAWiJgMQaj0U-43">
          <mxGeometry width="50" height="50" relative="1" as="geometry">
            <mxPoint x="640" y="700" as="sourcePoint" />
            <mxPoint x="690" y="650" as="targetPoint" />
          </mxGeometry>
        </mxCell>
        <mxCell id="QIkn6gaIrlvY1YC5hSpW-6" value="" style="endArrow=classic;html=1;rounded=0;" edge="1" parent="1" target="Q5E4qi6qeAWiJgMQaj0U-44">
          <mxGeometry width="50" height="50" relative="1" as="geometry">
            <mxPoint x="320" y="710" as="sourcePoint" />
            <mxPoint x="690" y="650" as="targetPoint" />
          </mxGeometry>
        </mxCell>
        <mxCell id="QIkn6gaIrlvY1YC5hSpW-7" value="" style="endArrow=classic;html=1;rounded=0;exitX=0;exitY=0.5;exitDx=0;exitDy=0;entryX=1;entryY=0.5;entryDx=0;entryDy=0;" edge="1" parent="1" source="QIkn6gaIrlvY1YC5hSpW-1" target="Q5E4qi6qeAWiJgMQaj0U-45">
          <mxGeometry width="50" height="50" relative="1" as="geometry">
            <mxPoint x="640" y="700" as="sourcePoint" />
            <mxPoint x="690" y="650" as="targetPoint" />
          </mxGeometry>
        </mxCell>
      </root>
    </mxGraphModel>
  </diagram>
</mxfile>
